<svg xmlns="http://www.w3.org/2000/svg" width="207" height="34" viewBox="0 0 207 34" fill="none">
    <g id=" Logo Black 1" clip-path="url(#clip0_2017_3209)">
        <g id="Logo">
            <g id="Group">
                <g id="Group_2">
                    <path id="Vector" d="M7.29578 30.4253C7.29578 30.4253 7.30354 30.4292 7.30612 30.4318C7.30224 30.4292 7.29836 30.4279 7.29578 30.4253Z" fill="#fff"/>
                    <path id="Vector_2" d="M25.1834 6.6602C22.462 3.89309 18.7116 2.30518 14.8946 2.30518C14.8293 2.30518 14.7627 2.30518 14.6974 2.30648H14.6817C14.6256 2.30648 14.5694 2.30648 14.5132 2.30648C10.7576 2.30648 7.18088 3.77165 4.44251 6.43167C1.66496 9.13087 0.0874854 12.7572 0.00391077 16.6448C-0.0835814 20.6825 1.39726 24.4681 4.1735 27.3057C6.94322 30.1355 10.674 31.6947 14.6804 31.6947H14.6961C18.6149 31.6908 22.2883 30.1891 25.0371 27.4677C27.7729 24.7593 29.3164 21.1251 29.383 17.2376C29.4509 13.2404 27.9596 9.48476 25.1834 6.6602ZM15.1714 24.6C14.5877 26.2898 13.0233 27.3815 11.1846 27.3815C10.469 27.3815 9.76647 27.2169 9.09657 26.8918C7.26837 26.0051 5.82018 24.5347 4.66581 22.3997C3.11707 19.5333 2.87026 16.1355 3.98938 13.0772C5.11241 10.0071 7.50343 7.55862 10.5526 6.36246C12.5519 5.57764 14.1959 5.50974 14.1959 5.50974C14.1959 5.50974 12.9488 5.83359 11.9538 7.11725C11.0266 8.31341 10.8464 9.60229 10.9104 10.8859C10.9835 12.3616 11.4105 13.8685 12.2528 15.6288C12.5519 16.2517 12.86 16.885 13.1591 17.4962C13.7141 18.6323 14.2873 19.8075 14.8227 20.9802C15.4352 22.3226 15.5501 23.5057 15.1727 24.5974L15.1714 24.6ZM22.7976 25.0035C22.0167 25.8249 21.1365 26.4922 20.1297 27.0224C19.4011 27.4063 18.6136 27.6688 17.8053 27.8255L16.4759 28.084C16.4759 28.084 16.9461 27.8438 17.7087 26.8709C18.1631 26.2898 18.2937 26.1226 18.6006 25.074C18.8905 24.0829 18.705 21.4242 17.7818 19.34C17.3874 18.4481 16.9395 17.5536 16.5073 16.6892C16.143 15.9605 15.7669 15.207 15.4182 14.4496C14.9442 13.4206 14.6242 12.5496 14.4101 11.7086C14.1215 10.5725 14.3017 9.43905 14.9207 8.51843C15.5723 7.54687 16.6274 6.91353 17.8889 6.73594C18.12 6.70329 18.3525 6.68631 18.5771 6.68631C19.8881 6.68631 21.0882 7.23216 22.2491 8.3552C24.1909 10.2343 25.4132 12.6227 25.8846 15.4538C26.4762 19.0136 25.4367 22.226 22.7963 25.0022L22.7976 25.0035Z" fill="#fff"/>
                </g>
                <g id="Group_3">
                    <path id="Vector_3" d="M60.3554 8.16827C58.3914 7.04785 56.0304 6.7697 53.8222 7.13795C50.9245 7.66421 48.4617 9.71832 47.0657 12.2621C45.9714 14.2549 45.7377 16.6237 46.0785 18.8449C46.5355 21.6199 48.3206 24.0814 50.6816 25.5675C52.7658 26.8524 55.3448 27.188 57.728 26.7244C60.3175 26.2073 62.5414 24.4588 63.9635 22.2767C65.3594 20.156 65.7786 17.4751 65.3072 14.9966C64.7927 12.1276 62.8613 9.60862 60.3541 8.16957L60.3554 8.16827ZM62.4421 19.5553C61.5829 21.7753 59.6998 23.6857 57.3402 24.2381C55.7078 24.5737 53.9371 24.4026 52.4537 23.61C50.4426 22.5013 48.9474 20.4446 48.6001 18.1633C48.3781 16.5388 48.5766 14.8151 49.3771 13.3656C50.3643 11.5805 52.0632 10.1388 54.0768 9.68828C56.1153 9.2247 58.394 9.61515 60.0224 10.9772C62.5505 12.9359 63.5835 16.5636 62.4434 19.5553H62.4421Z" fill="#fff"/>
                    <path id="Vector_4" d="M104.974 8.37582C102.604 6.85319 99.5479 6.49931 96.8709 7.34681C94.6693 8.07417 92.8163 9.65294 91.5405 11.566C89.9708 13.9596 89.6208 17.0362 90.3952 19.7668C91.0965 22.1878 92.8202 24.2354 94.9344 25.5674C97.755 27.3525 101.524 27.3825 104.457 25.8468C106.724 24.6885 108.462 22.6109 109.263 20.199H106.489C106.132 20.9212 105.715 21.6224 105.158 22.21C103.129 24.5188 99.5127 24.9249 96.8083 23.6634C94.557 22.594 92.8933 20.3583 92.657 17.8576C98.3413 17.8537 104.023 17.8576 109.709 17.855C109.727 16.5936 109.748 15.306 109.384 14.0837C108.705 11.7136 107.032 9.69343 104.972 8.37451L104.974 8.37582ZM92.6648 15.4457C93.0631 13.5692 94.1548 11.8298 95.7753 10.776C98.7187 8.72971 103.156 9.25858 105.475 12.0192C106.328 12.9907 106.867 14.1973 107.141 15.4549C102.316 15.4522 97.4886 15.4705 92.6635 15.4457H92.6648Z" fill="#fff"/>
                    <path id="Vector_5" d="M160.273 7.60277C157.5 6.4719 154.174 6.68606 151.637 8.31184C149.307 9.81096 147.479 12.2137 146.979 14.973C146.552 17.4437 146.922 20.1181 148.332 22.2296C149.71 24.2916 151.765 25.9787 154.186 26.6343C156.776 27.3133 159.649 26.902 161.918 25.4681C163.868 24.2746 165.339 22.3694 166.064 20.2069C165.141 20.1951 164.218 20.1977 163.296 20.2029C162.854 21.0922 162.306 21.9397 161.577 22.6188C158.994 24.9771 154.659 24.9158 152.037 22.6514C150.574 21.4762 149.661 19.7054 149.463 17.8498C155.136 17.8733 160.809 17.8524 166.482 17.8589C166.485 16.5544 166.573 15.2172 166.146 13.9597C165.264 11.1142 163.006 8.75322 160.273 7.60538V7.60277ZM149.475 15.4496C149.815 13.8591 150.626 12.3548 151.888 11.3062C154.027 9.39048 157.316 9.03398 159.897 10.2184C161.986 11.1873 163.509 13.201 163.949 15.4549C159.124 15.4575 154.298 15.4614 149.473 15.4496H149.475Z" fill="#fff"/>
                    <path id="Vector_6" d="M180.067 7.63939C178.331 6.93031 176.373 6.84674 174.554 7.25547C173.117 7.58063 171.806 8.33672 170.764 9.36703V7.42001H168.254V20.5556H168.255C168.255 22.5313 168.255 24.5084 168.255 26.4842H170.884C170.882 22.8134 170.889 19.14 170.88 15.4693C170.713 12.3222 173.628 9.46889 176.744 9.53549C179.751 9.51982 182.535 12.1955 182.543 15.2199C182.543 18.9755 182.54 22.7285 182.543 26.4842H185.114C185.114 22.6528 185.117 18.8201 185.111 14.9887C185.041 11.8325 182.992 8.83163 180.067 7.63808V7.63939Z" fill="#fff"/>
                    <path id="Vector_7" d="M84.5842 9.63709C82.662 7.70573 79.8531 6.80731 77.1604 7.03583C74.6323 7.18862 72.3092 8.4788 70.656 10.3605V7.41975H68.1461V19.6726C68.1409 24.153 68.1461 28.6333 68.1461 33.1137H70.656C70.6586 29.964 70.6599 26.8117 70.656 23.6607C72.5756 25.8166 75.4354 27.0872 78.3318 26.9475C83.4311 26.8874 87.8449 22.1106 87.6934 17.0504C87.8175 14.2755 86.6187 11.5149 84.5855 9.6384L84.5842 9.63709ZM80.2684 24.0028C78.2573 24.7301 75.8885 24.5382 74.0904 23.3486C72.2687 22.1367 70.955 20.1309 70.7304 17.9358C70.1885 14.3107 72.7493 10.4519 76.356 9.67235C78.1712 9.3041 80.1548 9.60836 81.6996 10.657C83.7106 12.019 85.0987 14.3512 85.1196 16.8049C85.2711 19.9207 83.1817 22.9372 80.2697 24.0002L80.2684 24.0028Z" fill="#fff"/>
                    <path id="Vector_8" d="M123.54 7.48684C120.653 6.52181 117.183 6.99062 114.914 9.11393C114.833 9.18576 114.755 9.2615 114.676 9.33723V7.42024H112.166V26.4857H114.738C114.742 22.7353 114.732 18.9862 114.74 15.2358C114.756 12.278 117.391 9.63758 120.336 9.54878C123.474 9.34115 126.411 12.1161 126.441 15.2488C126.468 18.9953 126.443 22.7392 126.452 26.4857H129.024V17.2716C129.017 16.0989 129.084 14.9145 128.853 13.7589C128.371 10.9252 126.254 8.43097 123.54 7.48684Z" fill="#fff"/>
                    <path id="Vector_9" d="M206.999 13.3501C206.999 9.19619 206.999 5.04097 206.998 0.885742C206.141 0.885742 205.283 0.885742 204.429 0.888354C204.429 4.03807 204.426 7.18779 204.429 10.3375C202.464 8.10842 199.473 6.8561 196.505 7.1016C191.804 7.33274 187.799 11.5467 187.501 16.189C187.227 18.9757 188.159 21.8695 190.105 23.8988C191.869 25.885 194.501 27.0733 197.166 27.0067C199.943 27.1216 202.629 25.8171 204.492 23.7787V26.4857H207.001V13.3501H206.999ZM203.523 20.6942C202.478 22.5499 200.677 24.0699 198.533 24.4107C196.995 24.6301 195.356 24.4473 193.982 23.6886C192.834 23.0461 191.88 22.0863 191.177 20.9802C189.785 18.7864 189.681 15.856 190.873 13.5512C191.801 11.8549 193.355 10.4681 195.223 9.90136C196.834 9.45084 198.624 9.50829 200.164 10.1899C201.864 10.9826 203.211 12.4661 203.913 14.1989C204.706 16.2818 204.638 18.7381 203.523 20.6942Z" fill="#fff"/>
                    <path id="Vector_10" d="M141.163 7.12989C137.043 6.22493 134.297 9.71418 134.46 12.4304C134.546 13.8694 135.199 15.0643 136.058 16.1599C137.059 17.437 138.165 18.6358 139.102 19.956C140.378 21.7515 139.754 23.4152 138.204 24.1151C137.119 24.516 136.214 24.4207 135.22 23.884C134.056 23.1279 133.187 21.5661 133.187 21.5661L131.112 23.1201C131.112 23.1201 131.966 24.6061 133.141 25.6351C134.248 26.5153 135.374 26.8182 136.743 26.9097C140.118 27.1264 142.988 24.1047 142.184 20.4692C141.837 18.8982 140.733 17.7439 139.749 16.5373C138.966 15.5788 138.146 14.6372 137.482 13.5991C136.775 12.4983 136.908 11.3452 137.641 10.4533C138.371 9.564 139.968 8.6721 141.747 9.82387C142.991 10.7393 143.345 11.6925 143.345 11.6925L145.411 10.7275C145.411 10.7275 144.442 7.84419 141.164 7.12989H141.163Z" fill="#fff"/>
                </g>
            </g>
        </g>
    </g>
    <defs>
        <clipPath id="clip0_2017_3209">
            <rect width="207" height="32.2285" fill="white" transform="translate(0 0.885742)"/>
        </clipPath>
    </defs>
</svg>